# xmcd
#
# Track frame offsets:
#	150
#	19366
#	33009
#	48530
#	67426
#	79279
#	92647
#	104333
#	121632
#	135312
#	152654
#
# Disc length: 2188 seconds
#
# Revision: 1
# Processed by: cddbd v1.4PL0 Copyright (c) Steve Scherf et al.
# Submitted via: audiograbber 1.82.00
#
DISCID=8b088a0b
DTITLE=The Old Joe Clarks - November
DYEAR=2003
DGENRE=Country
TTITLE0=Outward and Beyond
TTITLE1=Wasted Star
TTITLE2=Counting Sheep
TTITLE3=Faithful
TTITLE4=The Bright Side
TTITLE5=Got Nothing
TTITLE6=Following Rainbows
TTITLE7=Haven't Got Forever
TTITLE8=Sweet Dreams
TTITLE9=Only So Long
TTITLE10=Love Has Fallen
EXTD=
EXTT0=
EXTT1=
EXTT2=
EXTT3=
EXTT4=
EXTT5=
EXTT6=
EXTT7=
EXTT8=
EXTT9=
EXTT10=
PLAYORDER=
